<svg xml:space="preserve" viewBox="358.4 315.392 311.296 411.648" width="311.296" y="0px" x="0px" xmlns:xlink="http://www.w3.org/1999/xlink" xmlns="http://www.w3.org/2000/svg" id="Layer_1" version="1.1" style="max-height: 500px" height="411.648">
<path d="M530.230713,693.260376 &#xA;&#9;C526.295288,696.102051 522.487732,698.545532 519.065063,701.443542 &#xA;&#9;C515.910767,704.114136 513.548584,703.676025 510.311707,701.343628 &#xA;&#9;C451.107086,658.682068 391.827972,616.123779 332.537354,573.581665 &#xA;&#9;C293.686920,545.705750 254.791290,517.892883 215.926483,490.037048 &#xA;&#9;C214.737122,489.184570 213.279587,488.543457 212.850281,486.914185 &#xA;&#9;C213.307114,485.316711 214.657974,485.692535 215.734253,485.679596 &#xA;&#9;C220.233200,485.625488 224.797379,486.132599 229.220551,485.547974 &#xA;&#9;C242.799545,483.753143 253.552277,488.719543 264.462219,496.666077 &#xA;&#9;C327.623535,542.671265 391.241608,588.048950 454.653229,633.711121 &#xA;&#9;C466.524200,642.259155 478.160187,651.133484 490.731110,659.457458 &#xA;&#9;C489.597321,656.645813 488.569885,653.785706 487.313110,651.030151 &#xA;&#9;C475.999664,626.223999 457.993439,607.331909 435.937500,591.690918 &#xA;&#9;C393.809326,561.815613 351.963440,531.542236 310.000885,501.433350 &#xA;&#9;C295.110779,490.749481 280.205780,480.086212 265.357483,469.344543 &#xA;&#9;C263.828064,468.238068 261.762726,467.478333 261.314667,465.024353 &#xA;&#9;C261.926300,464.751923 262.510956,464.265991 263.097809,464.263336 &#xA;&#9;C275.089447,464.209808 287.081635,464.166931 299.072998,464.239105 &#xA;&#9;C301.526672,464.253845 303.340363,466.023163 305.225555,467.363037 &#xA;&#9;C330.484741,485.316406 355.747437,503.264954 380.964142,521.277893 &#xA;&#9;C406.315826,539.387390 431.649475,557.522644 456.927612,575.734497 &#xA;&#9;C470.692627,585.651672 482.431549,597.636780 492.422180,611.342834 &#xA;&#9;C493.491455,612.809814 494.639435,614.219421 496.548767,616.686646 &#xA;&#9;C496.957275,600.821716 495.114166,586.876343 485.861084,574.688110 &#xA;&#9;C476.753632,562.691772 464.905182,553.788879 452.852448,545.119019 &#xA;&#9;C410.924347,514.958801 368.945160,484.869659 327.037048,454.681793 &#xA;&#9;C323.045654,451.806610 318.509979,449.563782 315.302948,445.836731 &#xA;&#9;C315.984070,444.098358 317.248352,444.141907 318.362091,444.138672 &#xA;&#9;C329.181244,444.107422 340.000549,444.127808 350.819794,444.119507 &#xA;&#9;C353.372589,444.117523 355.708374,444.588959 357.862549,446.163422 &#xA;&#9;C395.118195,473.393799 433.135132,499.593353 469.309875,528.286499 &#xA;&#9;C485.891205,541.438538 499.955597,556.929199 511.408234,574.757812 &#xA;&#9;C511.850037,575.445557 512.367798,576.084412 512.805664,576.685059 &#xA;&#9;C514.643311,576.762268 515.226868,575.359436 515.954041,574.361328 &#xA;&#9;C532.551331,551.580811 553.778076,533.682434 576.292908,517.159607 &#xA;&#9;C607.321289,494.389008 638.420776,471.715332 669.433777,448.923920 &#xA;&#9;C673.723877,445.771118 678.003967,444.035187 683.623535,444.105804 &#xA;&#9;C692.775085,444.220734 701.935120,444.335236 711.090271,444.506622 &#xA;&#9;C712.499207,444.533020 714.114746,444.120026 715.459351,445.709106 &#xA;&#9;C713.556152,448.493591 710.560852,450.006622 707.932434,451.907471 &#xA;&#9;C658.122253,487.931152 608.099731,523.665466 558.556885,560.052795 &#xA;&#9;C532.452454,579.225525 516.878418,605.394348 511.592712,637.497620 &#xA;&#9;C511.007202,641.053772 511.134491,644.474304 513.835449,647.831299 &#xA;&#9;C517.046875,641.738464 520.050781,635.745300 523.315186,629.897644 &#xA;&#9;C536.533508,606.219360 555.898865,588.501953 577.763733,572.977417 &#xA;&#9;C626.397095,538.446716 674.829895,503.632507 723.213135,468.751740 &#xA;&#9;C727.564026,465.615112 731.898560,464.371948 737.068298,464.453064 &#xA;&#9;C747.475708,464.616333 757.887329,464.501648 768.388794,464.501648 &#xA;&#9;C768.398804,467.482880 766.407898,468.093018 765.032898,469.084656 &#xA;&#9;C706.660828,511.181335 648.232666,553.200378 589.897034,595.347412 &#xA;&#9;C568.213501,611.013672 550.556885,630.217468 539.312317,654.814575 &#xA;&#9;C538.634277,656.297791 538.093079,657.843567 537.280273,659.881592 &#xA;&#9;C540.026367,659.501221 541.519653,657.900208 543.175476,656.710999 &#xA;&#9;C617.061646,603.643066 691.087524,550.767090 764.652039,497.256744 &#xA;&#9;C776.150452,488.892853 787.381409,483.571747 801.670349,485.600891 &#xA;&#9;C806.827942,486.333282 812.167358,485.055511 817.964111,487.420441 &#xA;&#9;C722.151489,555.967041 626.338867,624.513672 530.230713,693.260376 &#xA;z" stroke="none" opacity="1.000000" fill="#000000"/>
<path d="M383.100342,429.150909 &#xA;&#9;C381.005707,427.409882 381.548187,426.128937 383.263214,424.980530 &#xA;&#9;C388.799133,421.273529 394.355469,417.596680 399.865631,413.851776 &#xA;&#9;C402.902161,411.787964 404.862152,414.053864 406.944000,415.551025 &#xA;&#9;C429.938049,432.087219 452.917084,448.644318 475.879700,465.224182 &#xA;&#9;C487.766083,473.806610 499.683990,482.348694 511.429749,491.120453 &#xA;&#9;C514.808838,493.643982 517.394714,493.509796 520.736328,491.088959 &#xA;&#9;C555.005127,466.261902 589.371765,441.569763 623.672180,416.786255 &#xA;&#9;C630.308289,411.991364 630.226379,411.890472 636.845825,416.489624 &#xA;&#9;C641.726440,419.880676 646.620483,423.252380 651.202637,426.421173 &#xA;&#9;C651.236023,428.717560 649.831238,429.233154 648.798401,429.976501 &#xA;&#9;C605.938293,460.825867 563.043152,491.626831 520.242188,522.557983 &#xA;&#9;C517.000061,524.900940 514.837769,524.944031 511.521118,522.521057 &#xA;&#9;C468.875977,491.367065 426.106628,460.383026 383.100342,429.150909 &#xA;z" stroke="none" opacity="1.000000" fill="#000000"/>
<path d="M579.688843,420.730286 &#xA;&#9;C560.222839,434.793671 540.962952,448.532104 521.934875,462.584473 &#xA;&#9;C517.712158,465.703003 514.932251,465.531311 510.669617,462.390533 &#xA;&#9;C483.711395,442.527435 456.482941,423.031219 429.368011,403.380371 &#xA;&#9;C427.267944,401.858429 424.897705,400.566528 423.011169,397.586609 &#xA;&#9;C429.785309,393.004852 436.290375,388.473755 442.947815,384.178925 &#xA;&#9;C445.059845,382.816437 446.704010,384.832672 448.260071,385.948212 &#xA;&#9;C468.976807,400.799347 489.776855,415.538940 510.273468,430.688812 &#xA;&#9;C514.811584,434.043060 517.779846,434.174255 522.384644,430.785797 &#xA;&#9;C542.512207,415.974640 563.058044,401.732330 583.205566,386.947662 &#xA;&#9;C587.365906,383.894714 590.173096,383.935120 594.014343,387.087250 &#xA;&#9;C598.849854,391.055237 604.159424,394.445404 610.176636,398.735229 &#xA;&#9;C599.572632,406.384369 589.775635,413.451447 579.688843,420.730286 &#xA;z" stroke="none" opacity="1.000000" fill="#000000"/>
<path d="M518.860107,405.185547 &#xA;&#9;C516.983032,406.531403 515.483704,406.409973 513.948608,405.291443 &#xA;&#9;C498.205109,393.819916 482.450012,382.364227 466.716644,370.878784 &#xA;&#9;C466.355682,370.615265 466.210999,370.055450 465.854553,369.443451 &#xA;&#9;C466.369720,368.840424 466.790131,368.097717 467.419769,367.648010 &#xA;&#9;C482.729919,356.712341 498.071594,345.820831 513.380188,334.883057 &#xA;&#9;C515.506042,333.364197 517.332458,333.000122 519.676880,334.712311 &#xA;&#9;C534.602417,345.612793 549.614685,356.394562 564.598511,367.215210 &#xA;&#9;C565.521545,367.881805 566.445984,368.546539 568.212036,369.819031 &#xA;&#9;C551.261780,381.980804 535.224304,393.487671 518.860107,405.185547 &#xA;z" stroke="none" opacity="1.000000" fill="#000000"/>
</svg>